<svg width="159" height="149" viewBox="0 0 159 149" fill="none" xmlns="http://www.w3.org/2000/svg">
<g clip-path="url(#clip0_523_622)">
<path fill-rule="evenodd" clip-rule="evenodd" d="M149.062 9.93565H59.625C59.625 4.45006 55.1755 0 49.6875 0H9.9375C4.44952 0 0 4.45006 0 9.93565V19.8663V34.7686V39.7352C0 45.2207 4.44952 49.6683 9.9375 49.6683H149.062C154.55 49.6683 159 45.2207 159 39.7352V19.8663C159 14.3807 154.55 9.93565 149.062 9.93565Z" fill="#CCA352"/>
<path d="M139.125 19.8672H19.875C14.387 19.8672 9.9375 24.3148 9.9375 29.8028V39.736C9.9375 45.2216 14.387 49.6692 19.875 49.6692H139.125C144.613 49.6692 149.062 45.2216 149.062 39.736V29.8028C149.062 24.3148 144.613 19.8672 139.125 19.8672Z" fill="white"/>
<path d="M149.062 29.8027H9.9375C4.44952 29.8027 0 34.2503 0 39.7359V139.068C0 144.553 4.44952 149.001 9.9375 149.001H149.062C154.55 149.001 159 144.553 159 139.068V39.7359C159 34.2503 154.55 29.8027 149.062 29.8027Z" fill="#FFCC66"/>
</g>
<defs>
<clipPath id="clip0_523_622">
<rect width="159" height="149" fill="white"/>
</clipPath>
</defs>
</svg>
