<svg width="1457" height="1412" viewBox="0 0 1457 1412" fill="none" xmlns="http://www.w3.org/2000/svg">
<path d="M369.941 0.712507C367.095 0.950017 357.875 2.01881 349.452 3.08761C180.417 23.5135 41.6608 156.876 7.85385 331.327C-7.28529 409.706 0.227364 510.291 27.3185 595.32C56.0032 684.743 104.152 762.884 186.336 853.257C225.266 896.008 258.503 928.072 367.095 1027.83C393.39 1051.93 422.644 1078.89 431.977 1087.8C548.537 1197.05 629.469 1288.73 699.018 1390.27L713.816 1412H728.841L743.867 1411.88L758.664 1389.08C822.067 1291.46 896.624 1203.82 1007.38 1096.82C1029.12 1075.69 1053.82 1052.53 1124.28 987.212C1233.1 886.033 1288.76 827.724 1333.84 767.515C1407.03 669.542 1444.02 577.151 1454.95 464.333C1457.11 441.057 1456.89 385.361 1454.38 365.172C1442.43 269.574 1404.18 187.396 1340.78 121.249C1277.38 55.1024 1198.5 15.0819 1106.98 2.73135C1085.01 -0.11878 1037.2 -0.11878 1014.78 2.73135C931.342 13.7756 857.809 48.6896 796.228 106.523C774.486 126.949 750.013 156.044 735.329 178.964C731.915 184.308 728.841 188.702 728.5 188.702C728.158 188.702 725.085 184.308 721.67 178.964C706.986 156.044 682.513 126.949 660.772 106.523C600.329 49.7584 527.593 14.7256 447.003 3.56263C430.384 1.18753 383.031 -0.475046 369.941 0.712507Z" fill="#F65252"/>
</svg>
