<svg width="1657" height="1657" viewBox="0 0 1657 1657" fill="none" xmlns="http://www.w3.org/2000/svg">
<mask id="mask0_617_23" style="mask-type:alpha" maskUnits="userSpaceOnUse" x="0" y="0" width="1657" height="1657">
<circle cx="828.5" cy="828.5" r="828.5" fill="#F5F5F5"/>
</mask>
<g mask="url(#mask0_617_23)">
<path fill-rule="evenodd" clip-rule="evenodd" d="M-107 -81C-162.228 -81 -207 -36.2285 -207 19V1689.56C-207 1744.79 -162.228 1789.56 -107 1789.56H1557C1612.23 1789.56 1657 1744.79 1657 1689.56V19.0001C1657 -36.2284 1612.23 -81 1557 -81H-107ZM1369.47 332.908L1150.47 1390.03C1145.31 1414.99 1116.15 1426.3 1095.57 1411.29L796.61 1193.48C778.462 1180.25 753.714 1180.96 736.34 1195.17L570.587 1330.76C551.353 1346.55 522.365 1337.75 514.999 1313.98L414.422 989.38C405.266 959.829 382.948 936.18 353.976 925.329L102.555 831.165C72.3501 819.81 72.092 777.017 102.211 765.374L1322.55 292.944C1348.42 282.905 1375.11 305.648 1369.47 332.908Z" fill="#5894BF"/>
<path fill-rule="evenodd" clip-rule="evenodd" d="M1077.59 524.074L496.456 883.251C474.182 897.043 463.699 924.037 470.884 949.308L533.716 1170.86C538.185 1186.56 560.881 1184.95 563.056 1168.74L579.386 1047.24C582.47 1024.37 593.339 1003.28 610.201 987.538L1089.8 540.156C1098.78 531.811 1088.03 517.64 1077.59 524.074Z" fill="#5894BF"/>
</g>
</svg>
