<svg width="800" height="800" viewBox="0 0 800 800" fill="none" xmlns="http://www.w3.org/2000/svg">
<path d="M765.219 529.677C747.801 508.769 728.007 490.03 708.865 471.907C702.058 465.462 695.02 458.798 688.236 452.172C668.759 433.129 668.05 425.975 683.471 404.344C694.14 389.434 705.451 374.505 716.391 360.066C726.314 346.966 736.575 333.419 746.409 319.828L748.429 317.034C767.225 291.026 786.665 264.132 797.01 231.69C799.696 223.13 802.517 210.535 796.067 200.002C789.622 189.479 777.119 186.268 768.273 184.769C763.898 184.027 759.553 183.925 755.521 183.925L632.426 183.837L631.408 183.828C612.797 183.828 600.254 192.599 593.066 210.645C586.205 227.887 578.667 246.247 570.066 263.705C552.95 298.468 531.211 338.508 499.755 371.902L498.425 373.322C494.711 377.314 490.502 381.835 487.426 381.835C486.955 381.835 486.442 381.745 485.861 381.562C479.345 379.023 474.972 363.25 475.17 355.913C475.172 355.812 475.174 355.71 475.174 355.609L475.088 213.336C475.088 212.842 475.053 212.354 474.989 211.865C471.858 188.737 464.921 174.34 438.713 169.207C438.017 169.068 437.306 169 436.597 169H308.601C287.748 169 276.258 177.476 265.457 190.162C262.542 193.553 256.473 200.612 259.481 209.176C262.533 217.867 272.44 219.726 275.666 220.329C291.679 223.377 300.705 233.172 303.262 250.286C307.725 280.004 308.273 311.725 304.988 350.113C304.072 360.781 302.26 369.021 299.274 376.061C298.58 377.704 296.12 383.066 293.612 383.068C292.815 383.068 290.51 382.756 286.31 379.862C276.381 373.06 269.117 363.353 260.648 351.363C231.836 310.646 207.656 265.79 186.715 214.203C178.948 195.213 164.443 184.582 145.854 184.269C125.428 183.958 106.909 183.809 89.2462 183.809C69.9476 183.809 52.0561 183.987 34.5852 184.35C19.629 184.615 9.28384 189.098 3.84042 197.686C-1.61181 206.28 -1.25728 217.57 4.8952 231.236C54.1458 340.728 98.8008 420.338 149.69 489.376C185.347 537.684 221.113 571.122 262.233 594.598C305.556 619.381 354.106 631.431 410.655 631.431C417.065 631.431 423.693 631.275 430.376 630.962C463.235 629.361 475.425 617.468 476.967 585.475C477.7 569.124 479.488 551.977 487.525 537.354C492.599 528.14 497.329 528.14 498.883 528.14C501.878 528.14 505.591 529.519 509.579 532.102C516.731 536.77 522.864 543.024 527.891 548.487C532.623 553.677 537.302 558.92 541.986 564.165C552.093 575.486 562.544 587.19 573.462 598.29C597.358 622.603 623.683 633.296 653.92 630.975H766.778C767.018 630.975 767.26 630.966 767.5 630.951C778.746 630.209 788.486 623.97 794.222 613.837C801.328 601.283 801.185 585.267 793.839 570.985C785.504 554.835 774.692 541.038 765.219 529.677Z" fill="#5894BF"/>
</svg>
